<?xml version="1.0" encoding="UTF-8"?>
<svg id="Layer_1" xmlns="http://www.w3.org/2000/svg" xmlns:xlink="http://www.w3.org/1999/xlink" version="1.1" viewBox="0 0 500 500">
  <!-- Generator: Adobe Illustrator 29.0.1, SVG Export Plug-In . SVG Version: 2.1.0 Build 192)  -->
  <defs>
    <style>
      .st0 {
        fill: none;
      }

      .st1 {
        fill: url(#linear-gradient);
      }

      .st2 {
        isolation: isolate;
      }

      .st3 {
        opacity: .5;
      }

      .st4 {
        clip-path: url(#clippath);
      }
    </style>
    <linearGradient id="linear-gradient" x1="250" y1="502" x2="250" y2="2" gradientTransform="translate(0 503) scale(1 -1)" gradientUnits="userSpaceOnUse">
      <stop offset="0" stop-color="#fcecd4"/>
      <stop offset="1" stop-color="#f9d9af"/>
    </linearGradient>
    <clipPath id="clippath">
      <rect class="st0" width="499.7" height="499.7"/>
    </clipPath>
  </defs>
  <rect class="st1" width="500" height="500"/>
  <g>
    <path d="M375.3,261.8c-6,.8-11.3,3.6-15.7,8.2-9.6,10.3-9.3,26,.7,36,3.7,3.7,7,5.7,11.9,6.9,7.9,2,15.9.4,22.4-4.5,2.5-1.9,5.8-5.6,5.6-6.2,0-.2-1.8-1.8-4-3.6l-3.8-3.3-1.2,1.5c-5.5,7.3-16.8,8-23.2,1.5-.9-.9-2.2-2.7-2.9-4-1.1-2.1-1.2-2.7-1.2-6.6s.1-4.6,1.1-6.4c3.2-6.6,11-10.1,17.9-8.2,3.2.9,6.2,2.8,8.1,5.1l1.5,1.8,1.9-1.5c1-.8,2.8-2.4,4-3.4l2.1-1.9-1.7-2.1c-5.6-6.8-14.6-10.3-23.5-9.2Z"/>
    <path d="M162.9,263.5c-10.2,2.7-15.5,9.5-13.2,17.3,1.6,5.7,7,8.5,21.4,11.1,9.7,1.7,12.5,3.1,12.5,6.2s-1.2,3.7-4,4.9c-2.3,1.1-2.8,1.2-8.7,1.2s-9.6-.6-14.7-2.9c-1.6-.7-3-1.2-3.1-1.2-.5.6-4.6,8.2-4.5,8.3.4.5,7.3,3,10.1,3.7,4.7,1.2,14.8,1.5,20,.6,9.6-1.8,14.4-6.2,14.8-13.7.3-6.1-1.4-9.3-6.7-12.1-3.8-2-7-2.9-15.4-4.6-7.3-1.4-9.3-2.1-10.8-3.5-1.3-1.2-1.3-3.5,0-4.9,3.1-3.1,14.2-3.2,22.8-.2,1.4.5,2.7.7,2.9.6.3-.3,3.4-7.6,3.4-8s-6.6-2.3-10.3-3c-5-.9-12.7-.9-16.7.2Z"/>
    <path d="M193.3,232.1c.3.9,5.6,19.4,11.7,41.1l11,39.4,15.8.3,15.8.3,17.9-62.9c9.8-34.6,18-63.5,18.4-64.3.3-1-2.8-1.4-13.7-1.4h-14.1l-1.6,5.3c-.9,3-6.3,23.3-12.1,45.1-5.9,21.9-10.8,39.8-11.3,39.8s-5.6-17.1-11.7-38.1c-6.1-20.8-12.1-41.1-13.3-45.1l-2.1-7.1-11.5.3-11.5.3"/>
    <path d="M280.9,287.6v24.5h11.2v-24.4c0,0-.2-24.4-.2-24.4h-5.5c0-.1-5.5-.3-5.5-.3v24.5Z"/>
    <path d="M303.7,268.5v5.4h15.5v38.2h10.7v-38.2h7.6c0,0,7.6-.2,7.6-.2v-10.3h-20.7c0-.1-20.8-.2-20.8-.2v5.4Z"/>
    <path d="M411.5,287.6v24.5h10.3v-19.3h22.8v19.3h10.3v-24.4c0,0-.2-24.4-.2-24.4h-5c0-.1-5.1-.3-5.1-.3v19.4h-22.8v-19.3h-10.3v24.5Z"/>
    <path d="M62.7,198.7v14.1h40.5v100.1h28.1v-100.1l20-.2,19.9-.3v-27l-54.2-.3-54.3-.2v14.1Z"/>
  </g>
  <g class="st4">
    <g>
      <g class="st3">
        <rect x="-150.1" y="497.7" width="49.5" height="2"/>
        <polygon points="514.3 449.6 514.3 497.7 466.5 497.7 466.5 499.7 514.3 499.7 516.3 499.7 516.3 497.7 516.3 449.6 514.3 449.6"/>
        <rect x="-150.1" y="449.6" width="1.3" height="50"/>
        <rect x="-150.1" y="0" width="1.3" height="49.5"/>
        <polygon points="514.3 0 466.8 0 466.8 1.2 514.3 1.2 514.3 49.4 516.3 49.4 516.3 1.2 516.3 0 514.3 0"/>
        <polygon points="422.5 0 235.1 0 235.1 1.2 265.1 1.2 265.1 9.6 267.7 9.6 267.7 1.2 347.1 1.2 347.1 57.2 349.7 57.2 349.7 1.2 422.5 1.2 422.5 0"/>
        <g>
          <rect x="-150.1" y="0" width="49.5" height="1.3"/>
          <polygon points="131 0 -56.4 0 -56.4 1.2 15.9 1.2 15.9 57.2 18.5 57.2 18.5 1.2 97.8 1.2 97.8 10.3 100.4 10.3 100.4 1.2 131 1.2 131 0"/>
        </g>
        <polygon points="100.4 497.7 100.4 489.3 97.8 489.3 97.8 497.7 18.5 497.7 18.5 441.8 15.9 441.8 15.9 497.7 -56.4 497.7 -56.4 499.7 130.7 499.7 130.7 497.7 100.4 497.7"/>
        <polygon points="349.7 497.7 349.7 441.8 347.1 441.8 347.1 497.7 267.6 497.7 267.6 489.3 265 489.3 265 497.7 239.4 497.7 239.4 499.7 426.2 499.7 426.2 497.7 349.7 497.7"/>
        <polygon points="-64.2 330.6 -64.2 281.7 -66.8 281.7 -66.8 330.6 -148.8 330.6 -148.8 250.5 -70.7 250.5 -70.7 247.9 -148.8 247.9 -148.8 167.6 -66.8 167.6 -66.8 219.9 -64.2 219.9 -64.2 167.6 -57 167.6 -57 165 -148.8 165 -148.8 93.6 -150.1 93.6 -150.1 405.8 -148.8 405.8 -148.8 333.2 -57 333.2 -57 330.6 -64.2 330.6"/>
      </g>
      <g class="st3">
        <g>
          <path d="M-85.1,72.9c.4.3,1.3.7,2.3.7,1.8,0,2.3-1.1,2.3-2,0-1.4-1.3-2-2.6-2h-.8v-1h.8c1,0,2.3-.5,2.3-1.7s-.5-1.6-1.8-1.6-1.6.4-2,.7l-.4-1c.5-.4,1.6-.8,2.7-.8,2,0,2.9,1.2,2.9,2.4s-.7,2-1.9,2.4h0c1.2.3,2.3,1.2,2.3,2.6s-1.2,3.1-3.7,3.1-2.1-.4-2.7-.7l.3-1Z"/>
          <path d="M-71.8,69.4c0,3.4-1.3,5.3-3.5,5.3s-3.3-1.9-3.4-5.2c0-3.4,1.5-5.3,3.5-5.3,2.1,0,3.4,1.9,3.4,5.1ZM-77.3,69.5c0,2.7.8,4.2,2.1,4.2s2.1-1.6,2.1-4.2-.7-4.2-2.1-4.2-2.1,1.5-2.1,4.2Z"/>
        </g>
        <g>
          <path d="M-57.3,101.6c.5-.1,1.4-.5,2-1.1,1.2-1.2.8-2.4.3-3-1-1-2.3-.5-3.3.4l-.5.5-.7-.7.5-.5c.7-.7,1.2-2,.4-2.8-.6-.6-1.4-.7-2.3.2s-.8,1.4-1,1.9l-1-.5c.1-.7.5-1.6,1.3-2.4,1.4-1.4,2.9-1.2,3.8-.3.7.7.9,1.8.4,3h0c1-.7,2.5-.8,3.4.3,1.2,1.2,1.2,3.1-.5,4.8-.8.8-1.8,1.2-2.3,1.4l-.5-1Z"/>
          <path d="M-50.2,89.3c2.5,2.5,2.9,4.7,1.3,6.3-1.4,1.4-3.6,1-6.1-1.3-2.4-2.4-2.7-4.8-1.2-6.2,1.5-1.6,3.7-1,6,1.2ZM-54,93.3c1.9,1.9,3.5,2.3,4.4,1.5s.3-2.6-1.5-4.5c-1.8-1.8-3.4-2.5-4.4-1.5s-.5,2.5,1.5,4.5Z"/>
        </g>
        <g>
          <path d="M-47.4,108.3l.3-.3c.2-.2.3-.4.5-.6s.3-.5.3-.7c0-.3,0-.5,0-.8s-.2-.5-.5-.8c-.4-.4-.8-.5-1.2-.5s-.8.2-1.2.6-.5.7-.6,1c0,.3,0,.7,0,1.1l-1.1.5c-.3-.6-.3-1.2,0-1.8.2-.6.5-1.1,1-1.6.3-.3.6-.5.9-.7s.7-.3,1-.3.7,0,1,.1.7.3,1,.7.6.8.7,1.4,0,1-.3,1.5h0c.3-.2.5-.3.8-.4.3,0,.6,0,.8,0s.6.1.8.3c.3.1.5.3.7.5.3.3.6.7.7,1.1.1.4.2.8.1,1.2s-.1.8-.4,1.2c-.2.4-.5.7-.8,1-.5.5-1.2.9-1.8,1-.7.2-1.3,0-2-.3l.6-1.2c.5.3,1,.4,1.4.3s.8-.3,1.2-.7c.2-.2.4-.5.5-.7.1-.3.2-.5.2-.8s0-.5-.1-.8c0-.3-.3-.5-.5-.7-.3-.3-.5-.5-.8-.5-.3,0-.6,0-.8,0-.3,0-.5.2-.8.3-.3.2-.5.4-.7.6l-.3.3-.7-.6Z"/>
          <path d="M-42.3,98.6l-2.9,2.9,1.9,2c0-.2.2-.4.3-.6.1-.2.3-.3.5-.5.3-.3.7-.6,1.1-.8.4-.1.8-.3,1.2-.3s.8.1,1.2.3c.4.2.8.5,1.1.8.4.3.7.7.8,1.2.2.4.3.8.3,1.2s-.1.8-.3,1.2c-.2.4-.5.8-.8,1.2-.5.5-1.1.8-1.7,1-.6.1-1.2,0-1.8-.1l.5-1.2c.4.1.8.2,1.2.1s.8-.3,1-.6c.2-.2.4-.5.5-.7.1-.3.1-.5.1-.8s0-.6-.2-.8c-.1-.3-.3-.5-.6-.8s-.5-.5-.8-.6-.6-.1-.9-.1-.6.1-.8.3c-.3.1-.6.3-.8.6-.3.3-.5.5-.7.8s-.3.7-.4,1l-3.6-3.8,3.8-3.8.8.9Z"/>
        </g>
        <g>
          <path d="M-117.1,42.4l-.6-.6v-1.5c0-3.6,0-5.3-1.1-6.4-.7-.7-1.8-1-2.8,0s-.8,1.5-.9,2.1l-1-.4c0-.9.5-2,1.3-2.7,1.6-1.6,3.3-1.1,4.3-.1,1.3,1.3,1.4,3.4,1.4,6.3v1.1h0l3.3-3.3.8.8-4.6,4.7Z"/>
          <path d="M-110.7,28.7c2.5,2.5,2.9,4.7,1.3,6.3-1.4,1.4-3.6,1-6.1-1.3-2.4-2.4-2.7-4.8-1.2-6.2,1.4-1.5,3.6-1,6,1.2ZM-114.5,32.7c1.9,1.9,3.5,2.3,4.4,1.5s.3-2.6-1.5-4.5c-1.8-1.8-3.4-2.5-4.4-1.5s-.5,2.5,1.5,4.5Z"/>
        </g>
        <g>
          <path d="M-106.4,52.4v-5.3c0-.3,0-.7,0-.9s0-.5,0-.7c0-.2-.1-.4-.2-.6-.1-.2-.3-.4-.4-.5-.2-.2-.4-.3-.6-.4s-.5-.1-.7-.1-.5,0-.7.2c-.2.1-.4.3-.6.5-.4.4-.6.8-.6,1.2s.1.8.4,1.3l-1,.8c-.3-.3-.4-.7-.5-1,0-.3-.1-.7,0-1,0-.3.1-.7.3-1s.4-.7.7-.9c.3-.3.7-.5,1-.7.3-.2.7-.3,1-.3.4,0,.7,0,1.1.1s.7.3,1,.7.5.6.7.9.3.7.3,1,0,.7.1,1v5.3h-.1l3.6-3.6.8.8-4.6,4.6-1.2-1.1Z"/>
          <path d="M-102.8,38.1l-2.9,2.9,1.9,2c0-.2.2-.4.3-.6s.3-.3.5-.5c.3-.3.7-.6,1.1-.8.4-.1.8-.3,1.2-.3s.8.1,1.2.3c.4.2.8.5,1.1.8.4.3.7.7.8,1.2.2.4.3.8.3,1.2s-.1.8-.3,1.2-.5.8-.8,1.2c-.5.5-1.1.8-1.7,1s-1.2,0-1.8-.1l.5-1.2c.4.1.8.2,1.2.1.4,0,.8-.3,1-.6.2-.2.4-.5.5-.7.1-.3.1-.5.1-.8s0-.6-.2-.8c-.1-.3-.3-.5-.6-.8-.3-.3-.5-.5-.8-.6s-.6-.1-.9-.1-.6.1-.8.3c-.3.1-.6.3-.8.6-.3.3-.5.5-.7.8s-.3.7-.4,1l-3.6-3.8,3.8-3.8.8.9Z"/>
        </g>
        <path d="M-53.1,114.8c1.8-1.1,3.5-2.3,5.1-3.6l.3-.2-.9-1.2-.3.2c-1.6,1.3-3.3,2.5-4.9,3.6l-.3.2.8,1.2.2-.2Z"/>
        <path d="M-37.8,100c1.3-1.6,2.6-3.3,3.7-5l.2-.3-1.2-.8-.2.3c-1.1,1.7-2.3,3.3-3.6,4.9l-.2.3,1.1.9.2-.3Z"/>
        <path d="M-48.1,87.1c-.3.6-.7,1.2-1,1.7l-.9-.6c.3-.5.7-1,1-1.6l1,.5Z"/>
        <path d="M-59.8,99.2c-.5.3-1.1.7-1.6,1l-.5-1c.5-.3,1-.6,1.6-.9l.6.9Z"/>
        <path d="M-104.9,24.9c-1.8,1.1-3.5,2.3-5.1,3.6l-.3.2.9,1.2.3-.2c1.6-1.3,3.3-2.5,4.9-3.6l.3-.2-.7-1.2-.3.2Z"/>
        <path d="M-120.1,39.6c-1.3,1.6-2.6,3.3-3.7,5v.3c-.1,0,1.1.8,1.1.8l.2-.3c1.1-1.7,2.3-3.3,3.6-4.9l.2-.3-1.1-.9-.3.3Z"/>
        <path d="M-109.8,52.4c.3-.6.7-1.2,1-1.7l.9.6c-.3.5-.7,1-1,1.6l-1-.5Z"/>
        <path d="M-98,40.4c.5-.3,1.1-.7,1.6-1l.5,1c-.5.3-1,.6-1.6.9l-.6-.9Z"/>
        <path d="M-79.1,80.9c-6.2,0-11.4-5.1-11.4-11.4s5.1-11.4,11.4-11.4,11.4,5.1,11.4,11.4-5.1,11.4-11.4,11.4ZM-79.1,59.5c-5.5,0-10.1,4.6-10.1,10.1s4.6,10.1,10.1,10.1,10.1-4.6,10.1-10.1-4.5-10.1-10.1-10.1Z"/>
        <path d="M-79.1,84.3c-8.1,0-14.8-6.6-14.8-14.8s6.6-14.8,14.8-14.8,14.8,6.6,14.8,14.8-6.6,14.8-14.8,14.8ZM-79.1,56.1c-7.4,0-13.5,6.1-13.5,13.5s6.1,13.5,13.5,13.5,13.5-6.1,13.5-13.5c0-7.4-6.1-13.5-13.5-13.5Z"/>
        <path d="M-33.7,43.3l-1.7,1c-4.7-7.8-11.3-14.2-19.3-18.5l.9-1.7c8.4,4.4,15.2,11.1,20,19.2Z"/>
        <path d="M-104.1,112.5l-1,1.7c-8.2-4.9-14.8-11.5-19.3-19.8l1.8-.9c4.3,8.1,10.7,14.3,18.5,19.1Z"/>
        <path d="M-63,39.2l.7.4c5.3,3.1,9.8,7.6,12.8,13l.4.7,1.6-1.2-.3-.5c-3.2-5.7-7.8-10.3-13.4-13.6l-.5-.3-1.2,1.5Z"/>
        <path d="M-94.6,99.2l-.7-.4c-5.3-3.1-9.8-7.6-12.8-13l-.4-.7-1.6,1.2.3.5c3.2,5.7,7.8,10.3,13.4,13.6l.5.3,1.2-1.5Z"/>
        <polygon points="-130.3 68.1 -143.7 67.9 -143.7 70.9 -130.3 70.7 -130.3 68.1"/>
        <polygon points="-113.2 70.3 -98.4 70 -98.4 68.7 -113.2 68.5 -113.2 70.3"/>
        <polygon points="-114 68.5 -129.6 68.3 -129.6 70.5 -114 70.3 -114 68.5"/>
        <polygon points="-77.8 17.8 -77.6 4.4 -80.6 4.4 -80.5 17.8 -77.8 17.8"/>
        <polygon points="-80 34.8 -79.7 49.6 -78.4 49.6 -78.2 34.8 -80 34.8"/>
        <polygon points="-78.2 34.2 -78 18.4 -80.2 18.4 -80 34.2 -78.2 34.2"/>
        <polygon points="-78.4 103.3 -78.2 89 -80.3 89 -80.1 103.3 -78.4 103.3"/>
        <polygon points="-78.5 119.7 -78.4 104.6 -80.1 104.6 -79.9 119.7 -78.5 119.7"/>
        <polygon points="-80.1 121 -79.9 134 -78.6 134 -78.4 121 -80.1 121"/>
        <polygon points="-45.6 68.1 -60 68 -60 70 -45.6 69.9 -45.6 68.1"/>
        <polygon points="-29.3 68.2 -44.3 68 -44.3 69.9 -29.3 69.7 -29.3 68.2"/>
        <polygon points="-27.9 69.8 -14.9 69.6 -14.9 68.3 -27.9 68.1 -27.9 69.8"/>
        <path d="M-79.1,1.1c-37.5,0-68,30.5-68,68s30.5,68,68,68S-11.1,106.6-11.1,69.1-41.5,1.1-79.1,1.1ZM-75,135c-.5,0-1,0-1.4,0,0-2.9-.1-10.7,0-19,.1-10.2,1-21.8,1.9-28.5.7-.2,1.5-.4,2.2-.7-1.4,7-2,19.2-2.6,29.5-.6,8.3-.2,15.9,0,18.6ZM-79.1,86.8c-9.5,0-17.3-7.7-17.3-17.3s7.7-17.3,17.3-17.3,17.3,7.7,17.3,17.3,0,1.9-.3,2.8l-.4,1.7h0c-2,7.4-8.7,12.8-16.7,12.8ZM-82.3,135.1c-.3,0-.7,0-1,0,0-2.9.2-11-.4-19.4-.7-10.4-.4-21.9-1.8-28.7.5.2,1,.3,1.5.5,1.5,6.6,1.5,18,1.9,28.4.3,8.5,0,16.7-.1,19.2ZM-145.1,69.1c0-1.7,0-3.4.2-5.1,6.6,2,18.7,2.9,29.2,3.1,8.9,0,16.6.3,18.3.4,0,.7-.1,1.4-.1,2s0,1.5.1,2.3c-1.6,0-9.2-.2-18.2,0-10.2.2-22.3,1.1-29.2,3.1-.1-1.8-.3-3.8-.3-5.7ZM-144,56.9c6.6,2.9,18.8,5,29,6.2,8.5,1,16.1.8,18.2.8-.1.5-.3.9-.4,1.4-1.6,0-9.3-.3-18.2-.8-10.3-.6-23-2.4-29.3-4.2.3-1.2.5-2.3.7-3.4ZM-144.4,79c6.5-2.6,18.9-2.9,28.9-4,8.5-1,16.3-1.2,18.4-1.2.1.5.3,1,.5,1.5-2.2,0-10.3,0-18.9,1-9.9,1.2-21.5,2.7-28.2,5.5-.3-.9-.5-1.8-.6-2.7ZM-86,32.5c-1.2-9.8-2.7-21.5-5.5-28.2.9-.2,1.8-.3,2.8-.5,2.6,6.6,2.8,18.9,4,28.8,1,8.6,1.2,16.9,1.2,18.9-.5.1-1,.3-1.5.5,0-1.7,0-10.5-1-19.5ZM-73.6,51.8c-.5-.1-.9-.3-1.4-.3,0-2.1.3-10.1.8-18.6.6-10.2,2.4-22.8,4.2-29.2,1.2.1,2.3.3,3.4.6-2.9,6.6-4.9,18.7-6.2,28.9-1.1,8.9-.8,16.9-.8,18.6ZM-60.8,66.2c6.7,1,16.8,1.4,27.3,1.4,9.7,0,19.1-.2,20.4-.2v3.3c-1.7,0-10.9-.6-20.3-.5-10.5.1-20.5.6-27.3,1.7.1-.8.1-1.6.1-2.4,0-1.1,0-2.2-.3-3.3ZM-32.9,66.2c-10.1-.1-21.6-.9-28.3-1.8-.2-.8-.5-1.5-.8-2.2,7,1.4,19.1,1.9,29.4,2.6,9.4.6,17.8,0,19.4-.1,0,.5,0,1,0,1.5-1.8,0-10.5.2-19.8,0ZM-61,73.7c6.6-1.4,17.7-1.4,27.9-1.8,9.9-.4,19.4.1,20,.1,0,.3,0,.7,0,1-1.7,0-10.8-.3-20.2.3-10.5.7-21.3.3-28,1.6.2-.4.3-.8.4-1.4ZM-13.2,63.7c-2.4,0-10.5,0-19.2-.5-10.3-.7-23.7-1.2-30.5-2.7-2-3.5-5-6.2-8.7-7.9,0-2.1,0-10.7,1.1-19.3,1.2-10.1,4.2-21.9,7.2-28.2C-36.1,11.7-15.6,35.2-13.2,63.7ZM-73.8,3.3c-2,6.6-2.9,18.7-3,29,0,8.6-.3,16.6-.4,18.8-.6,0-1.2,0-1.8,0s-1.6,0-2.3.1c0-2.7,0-10.5-.1-18.7-.2-10.2-1.1-22.2-3.1-29,1.8-.1,3.6-.3,5.5-.3,1.7-.1,3.4,0,5.2.1ZM-94.8,5c2.8,6.5,5.3,17.9,6.5,27.7,1.1,9.2,1.5,18.8,1.5,20-4,1.9-7.2,5.1-9.1,9.1-1.6,0-10,0-18.9-1.1-10.2-1.2-22.1-4.2-28.4-7.2,5.9-23.9,24.6-42.6,48.4-48.5ZM-143.1,85.2c6.5-2.8,18-5.3,27.7-6.5,8.6-1,17.2-1.4,19.4-1.5,1.7,3.8,4.7,7,8.4,8.8,1.6,6.6,1.5,19.3,2.2,29.9.5,7.9.3,15.7.2,18.9-28.2-2.6-51.2-23-57.9-49.7ZM-81,135.1c.1-2.9.5-11.1.5-19.5-.1-10.9-.7-21-1.8-27.8,1,.2,2.1.3,3.2.3s1.6,0,2.4-.1c-1,6.8-1.2,17.1-1.2,27.6s.1,16.9.2,19.6h-1.3c-.7,0-1.3,0-2,0ZM-74,135c0-3.1,0-10.5.5-18.4.7-10.3,1.2-23.6,2.7-30.4,3.8-1.9,6.8-5.1,8.6-8.9,6.8-1.4,18.9-1.4,29.1-2,8.6-.6,17.2-.3,19.8-.2-2.7,32-28.5,57.5-60.6,59.9Z"/>
      </g>
      <g class="st3">
        <g>
          <path d="M438.8,72.9c.4.3,1.3.7,2.3.7,1.8,0,2.3-1.1,2.3-2,0-1.4-1.3-2-2.6-2h-.8v-1h.8c1,0,2.3-.5,2.3-1.7s-.5-1.6-1.8-1.6-1.6.4-2,.7l-.4-1c.5-.4,1.6-.8,2.7-.8,2,0,2.9,1.2,2.9,2.4s-.7,2-1.9,2.4h0c1.2.3,2.3,1.2,2.3,2.6s-1.2,3.1-3.7,3.1-2.1-.4-2.7-.7l.3-1Z"/>
          <path d="M452,69.4c0,3.4-1.3,5.3-3.5,5.3s-3.3-1.9-3.4-5.2c0-3.4,1.5-5.3,3.5-5.3,2.2,0,3.4,1.9,3.4,5.1ZM446.6,69.5c0,2.7.8,4.2,2.1,4.2s2.1-1.6,2.1-4.2-.7-4.2-2.1-4.2-2.1,1.5-2.1,4.2Z"/>
        </g>
        <g>
          <path d="M471.9,31.8l.6-.6h1.5c3.6,0,5.3,0,6.4-1.1.7-.7,1-1.8,0-2.8-.7-.7-1.5-.8-2.1-.9l.4-1c.9,0,2,.5,2.7,1.3,1.6,1.6,1.1,3.3.1,4.3-1.3,1.3-3.4,1.4-6.3,1.4h-1.1c0,0,3.3,3.2,3.3,3.2l-.8.8-4.7-4.6Z"/>
          <path d="M485.6,38.1c-2.5,2.5-4.7,2.9-6.3,1.3-1.4-1.4-1-3.6,1.3-6.1,2.4-2.4,4.8-2.7,6.2-1.2,1.5,1.5,1,3.7-1.2,6ZM481.6,34.4c-1.9,1.9-2.3,3.5-1.5,4.4,1,1,2.6.3,4.5-1.5,1.8-1.8,2.5-3.4,1.5-4.4-.8-.9-2.5-.5-4.5,1.5Z"/>
        </g>
        <g>
          <path d="M412.8,91.4c.1.5.5,1.4,1.1,2,1.2,1.2,2.4.8,3,.3,1-1,.5-2.3-.4-3.3l-.5-.5.7-.7.5.5c.7.7,2,1.2,2.8.4.6-.6.7-1.4-.2-2.3-.6-.6-1.4-.8-1.9-1l.5-1c.7.1,1.6.5,2.4,1.3,1.4,1.4,1.2,2.9.3,3.8-.7.7-1.8.9-3,.4h0c.7,1,.8,2.5-.3,3.4-1.2,1.2-3.1,1.2-4.8-.5-.8-.8-1.2-1.8-1.4-2.3l1-.5Z"/>
          <path d="M425.1,98.6c-2.5,2.5-4.7,2.9-6.3,1.3-1.4-1.4-1-3.6,1.3-6.1,2.4-2.4,4.8-2.7,6.2-1.2,1.6,1.5,1,3.7-1.2,6ZM421.1,94.8c-1.9,1.9-2.3,3.5-1.5,4.4,1,1,2.6.3,4.5-1.5,1.8-1.8,2.5-3.4,1.5-4.4-.9-.9-2.5-.5-4.5,1.5Z"/>
        </g>
        <g>
          <path d="M462.4,42.3h5.3c.3,0,.7,0,.9,0s.5,0,.7,0,.4-.1.6-.2c.2-.1.4-.3.5-.4.2-.2.3-.4.4-.6,0-.2.1-.5.1-.7s0-.5-.2-.7-.3-.4-.5-.6c-.4-.4-.8-.6-1.2-.6s-.8.1-1.3.4l-.8-1c.3-.3.7-.4,1-.5.3,0,.7-.1,1,0,.3,0,.7.1,1,.3s.7.4.9.7c.3.3.5.7.7,1s.3.7.3,1c0,.4,0,.7-.1,1.1-.1.4-.3.7-.7,1-.3.3-.6.5-.9.7s-.7.3-1,.3-.7,0-1,.1h-5.3c0-.1,3.6,3.5,3.6,3.5l-.8.8-4.6-4.6,1.1-1.2Z"/>
          <path d="M476.8,45.9l-2.9-2.9-2,1.9c.2,0,.4.2.6.3.2.1.3.3.5.5.3.3.6.7.8,1.1.1.4.3.8.3,1.2s-.1.8-.3,1.2c-.2.4-.5.8-.8,1.1-.3.4-.7.7-1.2.8-.4.2-.8.3-1.2.3s-.8-.1-1.2-.3c-.4-.2-.8-.5-1.2-.8-.5-.5-.8-1.1-1-1.7s0-1.2.1-1.8l1.2.5c-.1.4-.2.8-.1,1.2,0,.4.3.8.6,1,.2.2.5.4.7.5s.5.1.8.1.6,0,.8-.2.5-.3.8-.6.5-.5.6-.8.1-.6.1-.9-.1-.6-.3-.8-.3-.6-.6-.8c-.3-.3-.5-.5-.8-.7s-.7-.3-1-.4l3.8-3.6,3.8,3.8-.9.8Z"/>
        </g>
        <g>
          <path d="M406.1,101.4l.3.3c.2.2.4.3.6.5s.5.3.7.3c.3,0,.5,0,.8,0s.5-.2.8-.5c.4-.4.5-.8.5-1.2s-.2-.8-.6-1.2c-.3-.3-.7-.5-1-.6-.3,0-.7,0-1.1,0l-.5-1.1c.6-.3,1.2-.3,1.8,0,.6.2,1.1.5,1.6,1,.3.3.5.6.7.9s.3.7.3,1,0,.7-.1,1-.3.7-.7,1c-.4.4-.8.6-1.4.7s-1,0-1.5-.3h0c.2.3.3.5.4.8,0,.3,0,.6,0,.8s-.1.6-.3.8c-.1.3-.3.5-.5.7-.3.3-.7.6-1.1.7-.4.1-.8.2-1.2.1s-.8-.1-1.2-.4c-.4-.2-.7-.5-1-.8-.5-.5-.9-1.2-1-1.8s0-1.3.3-2l1.2.6c-.3.5-.4,1-.3,1.4s.3.8.7,1.2c.2.2.5.4.7.5.3.1.5.2.8.2s.5,0,.8-.1c.3,0,.5-.3.7-.5.3-.3.5-.5.5-.8,0-.3,0-.6,0-.8,0-.3-.2-.5-.3-.8s-.4-.5-.6-.7l-.3-.3.6-.7Z"/>
          <path d="M415.8,106.5l-2.9-2.9-2,1.9c.2,0,.4.2.6.3.2.1.3.3.5.5.3.3.6.7.8,1.1.1.4.3.8.3,1.2s-.1.8-.3,1.2c-.2.4-.5.8-.8,1.1-.3.4-.7.7-1.2.8-.4.2-.8.3-1.2.3s-.8-.1-1.2-.3c-.4-.2-.8-.5-1.2-.8-.5-.5-.8-1.1-1-1.7-.1-.6,0-1.2.1-1.8l1.2.5c-.1.4-.2.8-.1,1.2s.3.8.6,1c.2.2.5.4.7.5s.5.1.8.1.6,0,.8-.2.5-.3.8-.6.5-.5.6-.8.1-.6.1-.9-.1-.6-.3-.8c-.1-.3-.3-.6-.6-.8-.3-.3-.5-.5-.8-.7s-.7-.3-1-.4l3.8-3.6,3.8,3.8-.9.8Z"/>
        </g>
        <path d="M444.9,80.9c-6.2,0-11.4-5.1-11.4-11.4s5.1-11.4,11.4-11.4,11.4,5.1,11.4,11.4-5.1,11.4-11.4,11.4ZM444.9,59.5c-5.5,0-10.1,4.6-10.1,10.1s4.6,10.1,10.1,10.1,10.1-4.6,10.1-10.1-4.5-10.1-10.1-10.1Z"/>
        <path d="M444.9,84.3c-8.1,0-14.8-6.6-14.8-14.8s6.6-14.8,14.8-14.8,14.8,6.6,14.8,14.8-6.6,14.8-14.8,14.8ZM444.9,56.1c-7.4,0-13.5,6.1-13.5,13.5s6.1,13.5,13.5,13.5,13.5-6.1,13.5-13.5c0-7.4-6-13.5-13.5-13.5Z"/>
        <path d="M471,114.8l-1-1.7c7.8-4.7,14.2-11.3,18.5-19.3l1.7.9c-4.4,8.3-11.1,15.2-19.2,20Z"/>
        <path d="M401.8,44.4l-1.7-1c4.9-8.1,11.4-14.8,19.8-19.3l.9,1.8c-8.1,4.2-14.3,10.6-19.1,18.5Z"/>
        <path d="M414.8,109.5l-1.2,1.5c2,1.4,4,2.7,6.2,4l.9-1.7c-2.1-1.2-4.1-2.5-5.9-3.8Z"/>
        <path d="M404.7,99.4c-1.2-1.6-2.3-3.2-3.3-4.9l-1.7,1c1,1.8,2.2,3.6,3.4,5.2l1.6-1.3Z"/>
        <path d="M475.5,28c-1.8-1.3-3.6-2.5-5.5-3.6l-1,1.7c1.8,1,3.4,2.1,5.1,3.3l1.4-1.4Z"/>
        <path d="M486.1,38.8l-1.5,1.2c1.1,1.5,2.1,3.1,3.1,4.7l1.7-1c-1-1.7-2.1-3.4-3.3-4.9Z"/>
        <path d="M475.1,85.5l-.4.7c-3.1,5.3-7.6,9.8-13,12.8l-.7.4,1.2,1.6.5-.3c5.7-3.2,10.3-7.8,13.6-13.4l.3-.5-1.5-1.2Z"/>
        <path d="M415.1,53.9l.4-.7c3.1-5.3,7.6-9.8,13-12.8l.7-.4-1.2-1.6-.5.3c-5.7,3.2-10.3,7.8-13.6,13.4l-.3.5,1.5,1.2Z"/>
        <path d="M429,99.1c-.7-.4-1.4-.8-2.1-1.3h-.3c0-.1-1.3,1.4-1.3,1.4l.3.2c.8.5,1.6,1,2.3,1.4h.3c0,.1,1.2-1.4,1.2-1.4l-.4-.2Z"/>
        <path d="M416.9,87.8c-.5-.7-.9-1.4-1.3-2.2l-.2-.3-1.6,1.3v.3c.5.7.9,1.4,1.4,2.1l.2.3,1.6-1.2v-.3Z"/>
        <path d="M461.4,39.9c.7.4,1.4.8,2.1,1.3h.3c0,.1,1.3-1.4,1.3-1.4l-.3-.2c-.8-.5-1.6-1-2.3-1.4h-.3c0-.1-1.2,1.4-1.2,1.4l.4.2Z"/>
        <path d="M473.5,51.1c.5.7.9,1.4,1.3,2.2l.2.3,1.6-1.3v-.3c-.5-.7-.9-1.4-1.4-2.1l-.2-.3-1.6,1.2v.3Z"/>
        <polygon points="446.4 18 446.6 4.5 443.5 4.5 443.7 18 446.4 18"/>
        <polygon points="444.2 35 444.4 49.8 445.7 49.8 445.9 35 444.2 35"/>
        <polygon points="445.9 34.3 446.2 18.6 444 18.6 444.2 34.3 445.9 34.3"/>
        <polygon points="496.5 71 509.9 71.2 509.9 68.1 496.5 68.3 496.5 71"/>
        <polygon points="479.5 68.8 464.7 69 464.7 70.3 479.5 70.5 479.5 68.8"/>
        <polygon points="480.2 70.5 495.9 70.7 495.9 68.5 480.2 68.8 480.2 70.5"/>
        <polygon points="445.9 103.5 446 89.1 444 89.1 444.2 103.5 445.9 103.5"/>
        <polygon points="445.8 119.8 446 104.8 444.3 104.8 444.4 119.8 445.8 119.8"/>
        <polygon points="444.3 121.2 444.5 134.2 445.8 134.2 446 121.2 444.3 121.2"/>
        <polygon points="411 69.9 425.4 70 425.4 68 411 68.1 411 69.9"/>
        <polygon points="394.7 69.8 409.7 69.9 409.7 68.3 394.7 68.4 394.7 69.8"/>
        <polygon points="393.3 68.3 380.3 68.5 380.3 69.8 393.3 69.9 393.3 68.3"/>
        <path d="M511.6,56.6c0,0,.1,0,.1,0l-.5-1.6c-6.5-30.7-33.9-53.9-66.5-53.9s-68,30.5-68,68,30.5,68,68,68,68-30.5,68-68c0-4.2-.4-8.4-1.1-12.5ZM510.9,69.1c0,1.9,0,3.8-.3,5.7-6.7-1.8-18.4-2.8-28.5-2.9-8.4,0-16.3-.3-18.6-.4,0-.7.1-1.3.1-2s0-1.5-.1-2.2c2.8,0,10.5,0,18.6-.1,10-.2,21.7-1.1,28.6-2.9,0,1.6.1,3.2.1,4.8ZM449.3,135c-.5,0-1,0-1.4,0,0-2.9-.1-10.7,0-18.9.1-10.3,1-22.1,1.9-28.7.8-.2,1.5-.5,2.2-.7-1.5,7-2,19.3-2.7,29.7-.5,8.2-.1,15.6,0,18.5ZM444.9,86.8c-9.5,0-17.3-7.7-17.3-17.3s7.7-17.3,17.3-17.3,17.3,7.7,17.3,17.3-7.7,17.3-17.3,17.3ZM441.9,135.1c-.3,0-.7,0-1,0,0-2.9.2-11-.4-19.3-.7-10.4-.4-21.9-1.8-28.7.5.2,1,.3,1.5.5,1.5,6.6,1.5,18,1.9,28.5.3,8.3,0,16.4-.1,19.1ZM378.8,69.1v-1.8c2.3.1,11,.6,20,.5,10.9-.1,21.2-.7,28-1.8-.2,1.2-.3,2.3-.3,3.6s0,1.4.1,2.1c-6.8-1-17.2-1.2-27.7-1.3-9.1,0-18,.1-20,.2,0-.5,0-.9,0-1.4ZM427.2,64.1c-6.5,1.6-18.2,1.6-28.7,2-9.1.3-17.8,0-19.7-.1,0-.3,0-.7,0-1,2.3,0,11,.2,19.8-.3,10.5-.7,22.2-.4,29-1.9-.1.5-.3.9-.5,1.4ZM378.8,71.8c2.3,0,10.7-.2,19.5,0,10.2.1,21.9,1,28.6,1.9.2.7.4,1.5.7,2.2-7-1.5-19.2-2-29.5-2.6-8.8-.6-16.9,0-19.1,0,0-.5,0-1,0-1.5ZM438.2,32.6c-1.2-10-2.7-21.7-5.5-28.4.9-.2,1.8-.3,2.8-.5,2.7,6.5,2.9,19,4.1,29,1,8.3,1.2,16.4,1.2,18.7-.5.1-1,.3-1.5.5,0-2.1,0-10.6-1-19.3ZM450.5,51.8c-.5-.1-.9-.3-1.4-.4,0-2.3.3-10.2.8-18.5.6-10.3,2.4-23,4.2-29.2,1.2.2,2.3.3,3.4.6-2.9,6.6-4.9,18.8-6.2,29-1,8.7-.8,16.6-.8,18.5ZM463.1,73.7c2.3,0,10.2.3,18.5.8,10,.6,22.1,2.3,28.6,4-.1,1.1-.3,2.2-.6,3.3-6.8-2.8-18.5-4.8-28.4-5.9-8.7-1-16.6-.8-18.5-.8,0-.5.2-1,.3-1.4ZM510.2,60.2c-6.6,2.5-18.7,2.7-28.4,3.9-8.3,1-16.5,1.2-18.7,1.2-.1-.5-.3-1-.5-1.5,2.1,0,10.5,0,19.3-1,9.7-1.2,21.1-2.7,27.9-5.3.2.9.3,1.8.5,2.7ZM509.1,54c-6.6,2.8-17.8,5.2-27.4,6.4-8.8,1.1-18,1.4-19.8,1.5-1.9-4.1-5.1-7.4-9.2-9.2,0-2.3.1-10.8,1.1-19.2,1.2-10.2,4.2-22,7.2-28.4,23.8,6.1,42.5,25,48.2,48.9ZM450.3,3.3c-2,6.6-3,18.7-3.1,29.2,0,8.4-.3,16.2-.4,18.6-.7,0-1.3-.1-2-.1s-1.5,0-2.2.1c0-2.8,0-10.5-.1-18.6-.2-10.3-1.1-22.4-3.1-29.2,1.8-.1,3.5-.2,5.3-.2,1.9,0,3.8.1,5.6.3ZM429.2,4.9c2.9,6.5,5.4,18,6.6,27.9,1.1,8.8,1.4,18,1.5,19.8-3.6,1.6-6.6,4.4-8.6,7.9-6.4,1.6-19.5,1.6-30.3,2.3-8.3.5-16.5.3-19.5.2,2.7-28.3,23.2-51.5,50.2-58ZM379,74.3c2.7,0,10.6,0,18.9.5,10.3.7,23.6,1.2,30.4,2.7,1.8,3.8,4.8,6.8,8.5,8.7,1.6,6.6,1.5,19.3,2.2,29.9.5,7.8.3,15.6.3,18.9-32.2-2.7-57.8-28.5-60.3-60.6ZM443.4,135.1c.1-3,.5-11.1.4-19.4-.1-10.9-.7-21-1.8-27.9,1,.1,2,.3,2.9.3s1.8,0,2.7-.2c-1,6.8-1.2,17.2-1.3,27.7,0,8.4.1,16.6.2,19.5h-1.8c-.5,0-.9,0-1.4,0ZM450.3,135c0-3.2,0-10.5.5-18.2.7-10.5,1.2-24.1,2.8-30.7,3.6-2,6.5-5,8.3-8.7,2.3,0,10.8.1,19.2,1.1,9.8,1.2,21.3,4,27.7,6.9-6.7,26.9-30.1,47.2-58.4,49.6Z"/>
      </g>
      <g class="st3">
        <g>
          <path d="M-85.1,432.9c.4.3,1.3.7,2.3.7,1.8,0,2.3-1.1,2.3-2,0-1.4-1.3-2-2.6-2h-.8v-1h.8c1,0,2.3-.5,2.3-1.7s-.5-1.6-1.8-1.6-1.6.4-2,.7l-.4-1c.5-.4,1.6-.8,2.7-.8,2,0,2.9,1.2,2.9,2.4s-.7,2-1.9,2.4h0c1.2.3,2.3,1.2,2.3,2.6s-1.2,3.1-3.7,3.1-2.1-.4-2.7-.7l.3-1Z"/>
          <path d="M-71.8,429.3c0,3.4-1.3,5.3-3.5,5.3s-3.3-1.9-3.4-5.2c0-3.4,1.5-5.3,3.5-5.3s3.4,1.9,3.4,5.1ZM-77.3,429.4c0,2.7.8,4.2,2.1,4.2s2.1-1.6,2.1-4.2-.7-4.2-2.1-4.2-2.1,1.5-2.1,4.2Z"/>
        </g>
        <g>
          <path d="M-61.4,402.9c0,.5.5,1.3,1.1,2,1.2,1.2,2.3.8,2.9.2,1-1,.5-2.3-.4-3.1l-.5-.5.7-.7.5.5c.7.7,1.9,1.2,2.7.4.5-.5.7-1.4-.2-2.2-.5-.5-1.3-.8-1.8-.9l.5-.9c.7,0,1.6.5,2.3,1.3,1.4,1.4,1.2,2.8.3,3.6-.7.7-1.8.9-2.9.3h0c.7,1,.7,2.3-.3,3.3-1.1,1.1-2.9,1.2-4.6-.5-.8-.8-1.2-1.7-1.3-2.3l.9-.5Z"/>
          <path d="M-50.1,409.4c-2.3,2.3-4.5,2.7-6.1,1.2-1.4-1.4-1-3.5,1.2-5.8,2.3-2.3,4.6-2.6,6-1.2,1.5,1.4,1,3.5-1.2,5.7ZM-54,405.7c-1.8,1.8-2.3,3.4-1.4,4.2,1,1,2.5.3,4.3-1.4,1.7-1.7,2.3-3.3,1.4-4.2-.8-.8-2.4-.4-4.3,1.4Z"/>
        </g>
        <g>
          <path d="M-95.7,454.6l-2.9-2.9-2,1.9c.2,0,.4.2.6.3s.3.3.5.5c.3.3.6.7.8,1.1.1.4.3.8.2,1.2,0,.4-.1.8-.3,1.2-.2.4-.5.8-.8,1.1s-.7.7-1.2.8c-.4.2-.8.3-1.2.3s-.8-.1-1.2-.3-.8-.5-1.2-.8c-.5-.5-.8-1.1-1-1.7,0-.6,0-1.2.1-1.8l1.2.5c-.1.4-.2.8-.1,1.2s.3.8.6,1c.2.2.5.4.7.5.3.1.5.1.8.1s.6,0,.8-.2.5-.3.8-.6c.3-.3.5-.5.6-.8s.1-.6.1-.9-.1-.6-.3-.8c-.1-.3-.3-.6-.6-.8-.3-.3-.5-.5-.8-.7s-.7-.3-1-.4l3.8-3.6,3.8,3.8-.8.8Z"/>
          <path d="M-111.2,451.9l.6-.6h1.4c3.4,0,5.1,0,6.2-1,.7-.7,1-1.7,0-2.7-.7-.7-1.4-.8-2-.8l.4-1c.8,0,1.8.5,2.7,1.2,1.5,1.5,1.1,3.1.1,4.1s-3.2,1.4-6.1,1.3h-1c0,0,3.1,3,3.1,3l-.8.8-4.6-4.2Z"/>
        </g>
        <g>
          <path d="M-122.7,463.4l.6-.6h1.4c3.4,0,5.1,0,6.2-1,.7-.7,1-1.7,0-2.7-.7-.7-1.4-.8-2-.8l.4-1c.8,0,1.8.5,2.7,1.2,1.5,1.5,1.1,3.1.1,4.1s-3.2,1.4-6.1,1.3h-1c0,0,3.1,3,3.1,3l-.8.8-4.6-4.2Z"/>
          <path d="M-109.8,469.3c-2.3,2.3-4.5,2.7-6.1,1.2-1.4-1.4-1-3.5,1.2-5.8,2.3-2.3,4.6-2.6,6-1.2,1.5,1.4,1,3.5-1.2,5.7ZM-113.6,465.6c-1.8,1.8-2.3,3.4-1.4,4.2,1,1,2.5.3,4.3-1.4,1.7-1.7,2.3-3.3,1.4-4.2-.8-.8-2.4-.5-4.3,1.4Z"/>
        </g>
        <g>
          <path d="M-36.8,395.6l-2.9-2.9-2,1.9c.2,0,.4.2.6.3.2.1.3.3.5.5.3.3.6.7.8,1.1.1.4.3.8.3,1.2s-.1.8-.3,1.2c-.2.4-.5.8-.8,1.1s-.7.7-1.2.8c-.4.2-.8.3-1.2.3s-.8-.1-1.2-.3c-.4-.2-.8-.5-1.2-.8-.5-.5-.8-1.1-1-1.7-.1-.6,0-1.2.1-1.8l1.2.5c-.1.4-.2.8-.1,1.2s.3.8.6,1c.2.2.5.4.7.5.3.1.5.1.8.1s.6,0,.8-.2c.3-.1.5-.3.8-.6s.5-.5.6-.8.1-.6.1-.9-.1-.6-.3-.8c-.1-.3-.3-.6-.6-.8-.3-.3-.5-.5-.8-.7s-.7-.3-1-.4l3.8-3.6,3.8,3.8-.9.8Z"/>
          <path d="M-50.4,391.7c0,.5.5,1.3,1.1,2,1.2,1.2,2.3.8,2.9.2,1-1,.5-2.3-.4-3.1l-.5-.5.7-.7.5.5c.7.7,1.9,1.2,2.7.4.5-.5.7-1.4-.2-2.2-.5-.5-1.3-.8-1.8-.9l.5-.9c.7,0,1.6.5,2.3,1.3,1.4,1.4,1.2,2.8.3,3.6-.7.7-1.8.9-2.9.3h0c.7,1,.7,2.3-.3,3.3-1.1,1.1-2.9,1.2-4.6-.5-.8-.8-1.2-1.7-1.3-2.3l.9-.5Z"/>
        </g>
        <path d="M-34,403.6c-1.1-1.8-2.3-3.5-3.6-5.1l-.2-.3-1.2.9.2.3c1.3,1.6,2.5,3.3,3.6,4.9l.2.3,1.2-.8-.2-.2Z"/>
        <path d="M-48.7,388.3c-1.6-1.3-3.3-2.6-5-3.7l-.3-.2-.8,1.2.3.2c1.7,1.1,3.3,2.3,4.9,3.6l.3.2.9-1.1-.3-.2Z"/>
        <path d="M-61.6,398.7c.6.3,1.2.7,1.7,1l-.6.9c-.5-.3-1-.7-1.6-1l.5-1Z"/>
        <path d="M-49.5,410.4c.3.5.7,1.1,1,1.6l-1,.5c-.3-.5-.6-1-.9-1.6l.9-.6Z"/>
        <path d="M-124.3,455.3c1.1,1.8,2.3,3.5,3.6,5.1l.2.3,1.2-.9-.2-.3c-1.3-1.6-2.5-3.3-3.6-4.9l-.2-.3-1.2.8.2.2Z"/>
        <path d="M-109.6,470.6c1.6,1.3,3.3,2.6,5,3.7l.3.2.8-1.2-.3-.2c-1.7-1.1-3.3-2.3-4.9-3.6l-.3-.2-.9,1.1.3.2Z"/>
        <path d="M-96.7,460.2c-.6-.3-1.2-.7-1.7-1l.6-.9c.5.3,1,.7,1.6,1l-.5,1Z"/>
        <path d="M-108.8,448.5c-.3-.5-.7-1.1-1-1.6l1-.5c.3.5.6,1,.9,1.6l-.9.6Z"/>
        <path d="M-79.1,441.1c-6.2,0-11.4-5.1-11.4-11.4s5.1-11.4,11.4-11.4,11.4,5.1,11.4,11.4-5.1,11.4-11.4,11.4ZM-79.1,419.6c-5.5,0-10.1,4.6-10.1,10.1s4.6,10.1,10.1,10.1,10.1-4.6,10.1-10.1-4.5-10.1-10.1-10.1Z"/>
        <path d="M-79.1,444.4c-8.1,0-14.8-6.6-14.8-14.8s6.6-14.8,14.8-14.8,14.8,6.6,14.8,14.8-6.6,14.8-14.8,14.8ZM-79.1,416.2c-7.4,0-13.5,6.1-13.5,13.5s6.1,13.5,13.5,13.5,13.5-6.1,13.5-13.5c0-7.4-6.1-13.5-13.5-13.5Z"/>
        <path d="M-104.9,384.2l1,1.7c-7.8,4.7-14.2,11.3-18.5,19.3l-1.7-.9c4.4-8.3,11.1-15.2,19.2-20Z"/>
        <path d="M-35.7,454.6l1.7,1c-4.9,8.1-11.4,14.8-19.8,19.3l-.9-1.8c8.1-4.2,14.3-10.6,19.1-18.5Z"/>
        <path d="M-109,413.5l.4-.7c3.1-5.3,7.6-9.8,13-12.8l.7-.4-1.2-1.6-.5.3c-5.7,3.2-10.3,7.8-13.6,13.4l-.3.5,1.5,1.2Z"/>
        <path d="M-49,445l-.4.7c-3.1,5.3-7.6,9.8-13,12.8l-.7.4,1.2,1.6.5-.3c5.7-3.2,10.3-7.8,13.6-13.4l.3-.5-1.5-1.2Z"/>
        <polygon points="-80.6 480.8 -80.8 494.1 -77.7 494.1 -77.9 480.8 -80.6 480.8"/>
        <polygon points="-78.4 463.8 -78.6 448.9 -79.9 448.9 -80.1 463.8 -78.4 463.8"/>
        <polygon points="-80.1 464.5 -80.3 480.2 -78.2 480.2 -78.4 464.5 -80.1 464.5"/>
        <polygon points="-130.5 428.6 -143.8 428.4 -143.8 431.5 -130.5 431.3 -130.5 428.6"/>
        <polygon points="-113.4 430.8 -98.6 430.6 -98.6 429.3 -113.4 429.1 -113.4 430.8"/>
        <polygon points="-114.2 429.1 -129.8 428.9 -129.8 431 -114.2 430.8 -114.2 429.1"/>
        <polygon points="-79.8 395.5 -79.9 409.8 -77.9 409.8 -78 395.5 -79.8 395.5"/>
        <polygon points="-79.9 379.2 -80 394.2 -78 394.2 -78.2 379.2 -79.9 379.2"/>
        <polygon points="-78.2 377.8 -78.4 364.8 -79.7 364.8 -79.9 377.8 -78.2 377.8"/>
        <polygon points="-44.9 428.4 -59.2 428.2 -59.2 430.2 -44.9 430.1 -44.9 428.4"/>
        <polygon points="-28.5 428.4 -43.6 428.3 -43.6 430 -28.5 429.9 -28.5 428.4"/>
        <polygon points="-27.2 430 -14.1 429.8 -14.1 428.5 -27.2 428.3 -27.2 430"/>
        <path d="M-79.1,361.5c-37.5,0-68,30.5-68,68s30.5,68,68,68,68-30.5,68-68-30.5-68-68-68ZM-72.3,466.2c1.2,9.9,2.7,21.5,5.5,28.3-.9.2-1.8.3-2.8.5-2.7-6.5-2.9-19-4-28.9-1.1-9-1.2-17-1.2-18.3.5-.1,1-.3,1.5-.4,0,2.3,0,10.3,1,18.8ZM-79.1,447c-9.5,0-17.3-7.7-17.3-17.3s7.7-17.3,17.3-17.3,17.3,7.7,17.3,17.3-7.7,17.3-17.3,17.3ZM-84.7,447.4c.5.1.9.3,1.4.4,0,1.8-.3,9.4-.8,18-.6,10.2-2.4,22.8-4.2,29.2-1.2-.1-2.3-.3-3.4-.6,2.9-6.6,4.9-18.8,6.2-29,1-8.4.8-15.8.8-18ZM-145.1,429.5c0-1.6,0-3.3.2-4.8,6.6,1.9,18.6,2.9,29,3,9.2,0,17.1.4,18.4.5,0,.5,0,1,0,1.6,0,.9,0,1.8.2,2.7-.8,0-8.8-.2-18.5,0-10.1.2-22.1,1.1-29,3-.1-2-.3-4-.3-5.9ZM-97.2,425.8c-1.4,0-9.2-.3-18.2-.8-10.2-.6-22.8-2.4-29.1-4.1.1-1.2.3-2.3.5-3.4,6.6,2.9,18.7,4.9,28.9,6.2,8.6,1,16.2.8,18.2.8-.1.5-.3.9-.3,1.4ZM-144.4,439.5c6.6-2.5,18.9-2.7,28.7-4,9-1.1,17.2-1.2,18.7-1.2.1.5.3,1,.5,1.6-1.5,0-10.2-.1-19.3,1-9.8,1.2-21.3,2.7-28,5.4-.3-1-.4-1.9-.5-2.8ZM-83.2,363.6c.5,0,1,0,1.4,0,0,2.7.1,10.7,0,19.2-.1,10.4-1,22.3-1.9,28.9-.8.2-1.5.5-2.2.7,1.6-6.9,2-19.4,2.7-29.9.6-8.5.1-16.3,0-18.8ZM-76,382.9c-.3-8.7,0-17,.1-19.4.3,0,.7,0,1,0,0,2.7-.2,11,.4,19.6.7,10.6.4,22.3,1.9,29.1-.5-.2-1-.3-1.5-.5-1.6-6.5-1.6-18.2-2-28.8ZM-60.7,426.5c6.7,1.1,17.1,1.3,28.1,1.4,8.5,0,16.9-.1,19.6-.2v3.2c-2.9-.1-11.1-.5-19.5-.5-11.2.1-21.3.4-28,1.6.1-.8.1-1.6.1-2.4s-.1-2-.3-3.1ZM-32.1,426.5c-10.5-.1-22.6-1-29.2-2-.2-.8-.5-1.6-.8-2.3,6.7,1.7,19.3,2.1,30.3,2.7,8.3.5,15.9.1,18.6,0,0,.5,0,1,0,1.4-2.8.1-10.7.2-18.9.1ZM-61.1,434.1c6.5-1.6,18.2-1.6,28.7-2,8.5-.3,16.7,0,19.3.1,0,.3,0,.7,0,1-2.9,0-11-.2-19.4.4-10.8.7-22.3.5-29,2.1.2-.5.3-1.1.5-1.7ZM-13.2,423.9c-3.1,0-10.5,0-18.4-.5-10.8-.7-24.9-1.3-31.3-3-1.8-3.1-4.4-5.7-7.5-7.3-1.6-6.4-1.6-19.5-2.3-30.3-.5-8-.3-16-.2-19.1,31.7,2.9,56.9,28.3,59.7,60.1ZM-77.3,363.5c-.1,2.7-.5,11.1-.5,19.7.1,10.7.5,21.3,1.6,28.1-1-.1-2-.3-2.9-.3s-1.7,0-2.5.2c1-6.8,1.3-17.3,1.3-28s-.1-17.2-.2-19.8h1.4c.7,0,1.2,0,1.8,0ZM-84.2,363.7c0,3,0,10.6-.5,18.5-.7,10.6-1.3,24.3-2.9,30.9-3.8,2-6.9,5.3-8.6,9.2-1.7,0-10,0-18.9-1.1-10.1-1.2-21.9-4.2-28.3-7.2,6.6-27.4,30.3-48.2,59.1-50.4ZM-143.1,445.7c6.5-2.8,17.8-5.3,27.5-6.4,9.3-1.1,18.7-1.5,19.8-1.5,1.9,3.9,5.1,7,9,8.8,0,1.8,0,10.1-1.1,18.8-1.2,10.1-4.2,21.9-7.2,28.3-23.6-6-42.2-24.5-48.1-48ZM-84.5,495.4c2-6.6,2.9-18.7,3-29.1,0-8.7.3-16.3.4-18.2.7,0,1.4.1,2,.1s1.5,0,2.3-.1c0,1.8-.2,9.3,0,18.2.2,10.2,1.1,22.3,3.1,29.2-1.8.1-3.5.2-5.3.2-1.8,0-3.6-.1-5.4-.3ZM-63.5,493.7c-2.9-6.5-5.3-18-6.6-27.8-1-8.6-1.4-17.2-1.5-19.3,4-1.8,7.3-5,9.2-9,6.5-1.6,19.4-1.6,30-2.2,7.9-.5,15.8-.3,19-.2-2.3,28.5-23,51.9-50.1,58.5Z"/>
      </g>
      <g class="st3">
        <g>
          <path d="M438.8,432.9c.4.3,1.3.7,2.3.7,1.8,0,2.3-1.1,2.3-2,0-1.4-1.3-2-2.6-2h-.8v-1h.8c1,0,2.3-.5,2.3-1.7s-.5-1.6-1.8-1.6-1.6.4-2,.7l-.4-1c.5-.4,1.6-.8,2.7-.8,2,0,2.9,1.2,2.9,2.4s-.7,2-1.9,2.4h0c1.2.3,2.3,1.2,2.3,2.6s-1.2,3.1-3.7,3.1-2.1-.4-2.7-.7l.3-1Z"/>
          <path d="M452,429.3c0,3.4-1.3,5.3-3.5,5.3s-3.3-1.9-3.4-5.2c0-3.4,1.5-5.3,3.5-5.3s3.4,1.9,3.4,5.1ZM446.6,429.4c0,2.7.8,4.2,2.1,4.2s2.1-1.6,2.1-4.2-.7-4.2-2.1-4.2-2.1,1.5-2.1,4.2Z"/>
        </g>
        <g>
          <path d="M418.6,412.5c.5-.1,1.4-.5,2-1.1,1.2-1.2.8-2.4.3-3-1-1-2.3-.5-3.3.4l-.5.5-.7-.7.5-.5c.7-.7,1.2-2,.4-2.8-.6-.6-1.4-.7-2.3.2s-.8,1.4-1,1.9l-1-.5c.1-.7.5-1.6,1.3-2.4,1.4-1.4,2.9-1.2,3.8-.3.7.7.9,1.8.4,3h0c1-.7,2.5-.8,3.4.3,1.2,1.2,1.2,3.1-.5,4.8-.8.8-1.8,1.2-2.3,1.4l-.5-1Z"/>
          <path d="M425.2,400.8c2.5,2.5,2.9,4.7,1.3,6.3-1.4,1.4-3.6,1-6.1-1.3-2.4-2.4-2.7-4.8-1.2-6.2,1.5-1.6,3.7-1,6,1.2ZM421.4,404.8c1.9,1.9,3.5,2.3,4.4,1.5s.3-2.6-1.5-4.5c-1.8-1.8-3.4-2.5-4.4-1.5-.8.8-.5,2.5,1.5,4.5Z"/>
        </g>
        <g>
          <path d="M479,473.2l-.6-.6v-1.5c0-3.6,0-5.3-1.1-6.4-.7-.7-1.8-1-2.8,0s-.8,1.5-.9,2.1l-1-.4c0-.9.5-2,1.3-2.7,1.6-1.6,3.3-1.1,4.3-.1,1.3,1.3,1.4,3.4,1.4,6.3v1.1h0l3.3-3.3.8.8-4.6,4.7Z"/>
          <path d="M484.7,460.2c2.5,2.5,2.9,4.7,1.3,6.3-1.4,1.4-3.6,1-6.1-1.3-2.4-2.4-2.7-4.8-1.2-6.2,1.5-1.6,3.7-1.1,6,1.2ZM480.9,464.2c1.9,1.9,3.5,2.3,4.4,1.5s.3-2.6-1.5-4.5c-1.8-1.8-3.4-2.5-4.4-1.5-.8.9-.5,2.5,1.5,4.5Z"/>
        </g>
        <g>
          <path d="M407.1,401.1c.5-.1,1.4-.5,2-1.1,1.2-1.2.8-2.4.3-3-1-1-2.3-.5-3.3.4l-.5.5-.7-.7.5-.5c.7-.7,1.2-2,.4-2.8-.6-.6-1.4-.7-2.3.2s-.8,1.4-1,1.9l-1-.5c.1-.7.5-1.6,1.3-2.4,1.4-1.4,2.9-1.2,3.8-.3.7.7.9,1.8.4,3h0c1-.7,2.5-.8,3.4.3,1.2,1.2,1.2,3.1-.5,4.8-.8.8-1.8,1.2-2.3,1.4l-.5-1Z"/>
          <path d="M410.8,386.5l-3.1,3.1,2,2.1c0-.2.2-.4.3-.6.1-.2.3-.4.5-.5.4-.4.7-.7,1.2-.8s.8-.3,1.3-.3.8.1,1.3.3.8.5,1.2.8c.4.4.7.8.8,1.2s.3.9.3,1.3-.1.9-.3,1.3c-.2.5-.5.8-.8,1.2-.6.6-1.2.9-1.8,1-.6.1-1.2,0-1.8-.2l.5-1.2c.4.1.8.2,1.2.1.4,0,.8-.3,1.1-.6s.4-.5.5-.8c.1-.3.2-.6.1-.8,0-.3,0-.6-.2-.9s-.3-.6-.6-.8c-.3-.3-.6-.5-.8-.6-.3-.1-.6-.2-.9-.1-.3,0-.6.1-.9.3s-.6.4-.8.7c-.3.3-.5.6-.7.9s-.3.7-.4,1.1l-3.8-4,3.9-3.9.7.8Z"/>
        </g>
        <g>
          <path d="M467.6,462l-.6-.6v-1.5c0-3.6,0-5.3-1.1-6.4s-1.8-1-2.8,0-.8,1.5-.9,2.1l-1-.4c0-.9.5-2,1.3-2.7,1.6-1.6,3.3-1.1,4.3-.1,1.3,1.3,1.4,3.4,1.4,6.3v1.1h0l3.3-3.3.8.8-4.6,4.7Z"/>
          <path d="M470.4,446.1l-3.1,3.1,2,2.1c0-.2.2-.4.3-.6.1-.2.3-.4.5-.5.4-.4.7-.7,1.2-.8s.8-.3,1.3-.3.8.1,1.3.3.8.5,1.2.8c.4.4.7.8.8,1.2s.3.9.3,1.3-.1.9-.3,1.3c-.2.5-.5.8-.8,1.2-.6.6-1.2.9-1.8,1-.6.1-1.2,0-1.8-.2l.5-1.2c.4.1.8.2,1.2.1.4,0,.8-.3,1.1-.6s.4-.5.5-.8c.1-.3.2-.6.1-.8,0-.3,0-.6-.2-.9s-.3-.6-.6-.8c-.3-.3-.6-.5-.8-.6-.3-.1-.6-.2-.9-.1-.3,0-.6.1-.9.3s-.6.4-.8.7c-.3.3-.5.6-.7.9s-.3.7-.4,1.1l-3.8-4,3.9-3.9.7.8Z"/>
        </g>
        <path d="M418.9,384.6c-1.6,1.1-3.1,2.3-4.5,3.6l-.2.2,1,1h0c1.4-1.3,2.9-2.5,4.4-3.5l.3-.2-.7-1.2h-.3Z"/>
        <path d="M403.5,399.4c-1.3,1.6-2.6,3.3-3.7,5l-.2.3,1.2.8.2-.3c1.1-1.7,2.3-3.3,3.6-4.9l.2-.3-1.1-.9-.2.3Z"/>
        <path d="M413.8,412.3c.3-.6.7-1.2,1-1.7l.9.6c-.3.5-.7,1-1,1.6l-1-.5Z"/>
        <path d="M425.6,400.2c.5-.3,1.1-.7,1.6-1l.5,1c-.5.3-1,.6-1.6.9l-.6-.9Z"/>
        <path d="M470.7,474.4c1.8-1.1,3.5-2.3,5.1-3.6l.3-.2-.9-1.2-.3.2c-1.6,1.3-3.3,2.5-4.9,3.6l-.3.2.8,1.2.2-.2Z"/>
        <path d="M486,459.7c1.3-1.6,2.6-3.3,3.7-5l.2-.3-1.2-.8-.2.3c-1.1,1.7-2.3,3.3-3.6,4.9l-.2.3,1.1.9.2-.3Z"/>
        <path d="M475.7,446.8c-.3.6-.7,1.2-1,1.7l-.9-.6c.3-.5.7-1,1-1.6l1,.5Z"/>
        <path d="M463.9,458.9c-.5.3-1.1.7-1.6,1l-.5-1c.5-.3,1-.6,1.6-.9l.6.9Z"/>
        <path d="M444.9,441.1c-6.2,0-11.4-5.1-11.4-11.4s5.1-11.4,11.4-11.4,11.4,5.1,11.4,11.4-5.1,11.4-11.4,11.4ZM444.9,419.6c-5.5,0-10.1,4.6-10.1,10.1s4.6,10.1,10.1,10.1,10.1-4.6,10.1-10.1-4.6-10.1-10.1-10.1Z"/>
        <path d="M444.9,444.4c-8.1,0-14.8-6.6-14.8-14.8s6.6-14.8,14.8-14.8,14.8,6.6,14.8,14.8-6.6,14.8-14.8,14.8ZM444.9,416.2c-7.4,0-13.5,6.1-13.5,13.5s6.1,13.5,13.5,13.5,13.5-6.1,13.5-13.5c0-7.4-6.1-13.5-13.5-13.5Z"/>
        <path d="M399.6,455.4l1.7-1c4.7,7.8,11.3,14.2,19.3,18.5l-.9,1.7c-8.3-4.4-15.2-11.1-20-19.2Z"/>
        <path d="M470,386.2l1-1.7c8.1,4.9,14.8,11.4,19.3,19.8l-1.8.9c-4.2-8.1-10.6-14.4-18.5-19.1Z"/>
        <path d="M428.9,459.5l-.7-.4c-5.3-3.1-9.8-7.6-12.8-13l-.4-.7-1.6,1.2.3.5c3.2,5.7,7.8,10.3,13.4,13.6l.5.3,1.2-1.5Z"/>
        <path d="M460.4,399.5l.7.4c5.3,3.1,9.8,7.6,12.8,13l.4.7,1.6-1.2-.3-.5c-3.2-5.7-7.8-10.3-13.4-13.6l-.5-.3-1.2,1.5Z"/>
        <polygon points="443.5 480.8 443.3 494.2 446.4 494.2 446.2 480.8 443.5 480.8"/>
        <polygon points="445.7 463.8 445.5 448.9 444.2 448.9 444 463.8 445.7 463.8"/>
        <polygon points="444 464.5 443.8 480.2 446 480.2 445.7 464.5 444 464.5"/>
        <polygon points="496.2 430.8 509.6 431 509.6 428 496.2 428.2 496.2 430.8"/>
        <polygon points="480.4 430.6 495.5 430.8 495.5 428.2 480.4 428.4 480.4 430.6"/>
        <polygon points="479.1 428.7 464.8 428.9 464.8 430.2 479.1 430.4 479.1 428.7"/>
        <polygon points="444.1 395.6 444 409.9 446 409.9 445.8 395.6 444.1 395.6"/>
        <polygon points="444 379.3 443.8 394.3 446 394.3 445.8 379.3 444 379.3"/>
        <polygon points="445.7 377.9 445.5 364.9 444.2 364.9 444 377.9 445.7 377.9"/>
        <polygon points="411.4 430.6 425.7 430.8 425.7 428.8 411.4 428.9 411.4 430.6"/>
        <polygon points="395 430.6 410.1 430.8 410.1 428.9 395 429 395 430.6"/>
        <polygon points="393.7 428.9 380.6 429.1 380.6 430.4 393.7 430.6 393.7 428.9"/>
        <path d="M444.8,361.5c-37.5,0-68,30.5-68,68s30.5,68,68,68,68-30.5,68-68-30.5-68-68-68ZM510.9,429.5c0,1.9,0,3.7-.3,5.5-6.6-2-18.7-3-29.2-3.1-8.5,0-15.9-.3-18-.4,0-.7.1-1.3.1-2s0-1.6-.1-2.3c2.1,0,9.4.2,18,0,10.3-.2,22.4-1.2,29.3-3.1,0,1.8.2,3.6.2,5.3ZM509.6,442.2c-6.6-3-18.8-5-29.1-6.2-8.1-1-15.4-.9-17.8-.8.1-.5.3-.9.4-1.4,2.1,0,9.4.3,17.8.8,10.3.6,23,2.5,29.3,4.2-.2,1.2-.4,2.3-.6,3.4ZM451.8,466.2c1.2,9.8,2.7,21.5,5.5,28.2-.9.2-1.8.3-2.8.5-2.6-6.6-2.8-18.9-4-28.8-1.1-9.2-1.2-17.2-1.2-18.3.5-.1,1-.3,1.5-.5,0,2.3,0,10.3,1,18.9ZM444.9,447c-9.5,0-17.3-7.7-17.3-17.3s7.7-17.3,17.3-17.3,17.3,7.7,17.3,17.3-7.8,17.3-17.3,17.3ZM439.4,447.4c.5.1.9.3,1.4.4,0,1.8-.3,9.4-.8,18-.6,10.2-2.4,22.8-4.2,29.2-1.2-.1-2.3-.3-3.4-.6,2.9-6.6,4.9-18.8,6.2-29,1-8.3.9-15.8.8-18ZM378.8,429.5v-1.6c1.6,0,10.8.6,20.4.5,10.9-.1,20.7-.4,27.5-1.5-.1.8-.2,1.8-.2,2.7s0,1.8.2,2.7c-6.7-1-16.8-1.2-27.4-1.2-9.8,0-19.2.2-20.4.2v-1.7ZM427,425c-6.6,1.4-17.8,1.4-28.1,1.8-10.1.4-19.7-.1-20-.1,0-.3,0-.7,0-1,1.6,0,10.8.3,20.2-.3,10.5-.7,21.7-.5,28.4-2-.3.5-.5,1-.6,1.6ZM378.8,432.5c1.8,0,10.5-.2,19.8,0,10.1.1,21.6.9,28.4,1.8.2.7.5,1.4.7,2.1-6.9-1.5-18.9-1.9-29.3-2.5-9.4-.6-17.8,0-19.4.1-.1-.5-.1-1-.1-1.5ZM440.6,363.6c.5,0,1,0,1.5,0,0,2.5.1,10.7,0,19.3-.1,10.3-1,22.2-1.9,28.8-.8.2-1.5.5-2.2.7,1.5-6.9,2-19.3,2.7-29.9.5-8.6,0-16.5-.1-18.9ZM447.9,383.1c-.3-8.9,0-17.4.1-19.5.3,0,.7,0,1,0,0,2.5-.2,11,.4,19.7.7,10.5.4,22.1,1.9,28.9-.5-.2-1-.3-1.5-.5-1.6-6.6-1.6-18.2-2-28.7ZM510.1,420.1c-6.5,2.7-19.1,2.9-29,4.1-8.8,1-16.5,1.2-18.1,1.2-.1-.5-.3-1-.5-1.5,2.5,0,10.3,0,18.7-1,10-1.2,21.7-2.8,28.4-5.5.2.8.3,1.8.5,2.7ZM509,413.9c-6.4,2.9-18,5.4-27.9,6.6-8.5,1-16.9,1.4-19.2,1.5-1.8-3.8-4.8-7-8.5-8.8-1.6-6.5-1.6-19.4-2.2-30.1-.5-8.1-.3-16.2-.2-19.3,28.2,2.7,51.4,23.2,58,50.1ZM446.6,363.5c-.1,2.5-.5,11.1-.5,19.8.1,10.6.5,21.1,1.6,27.9-.9-.1-1.9-.2-2.8-.2s-1.8,0-2.6.2c1-6.8,1.3-17.2,1.3-27.9s-.1-17.6-.2-19.9h1.4c.6,0,1.2,0,1.8,0ZM439.7,363.7c0,2.9,0,10.6-.5,18.7-.7,10.5-1.2,24.1-2.9,30.8-3.5,1.8-6.3,4.8-8.1,8.3-6.7,1.4-19.1,1.4-29.5,2.1-8.7.6-17.3.3-19.8.2,2.8-32,28.5-57.5,60.6-60ZM379,435c2.4,0,10.5,0,19.2.5,10.3.7,23.6,1.2,30.3,2.7,1.9,3.6,5,6.6,8.8,8.3,0,1.9,0,10.1-1.1,18.7-1.2,10.1-4.2,22-7.2,28.3-27.1-6.6-47.7-30-50-58.6ZM439.5,495.4c2-6.6,2.9-18.7,3-29.1,0-8.8.3-16.3.4-18.2.7,0,1.3.1,2,.1s1.6,0,2.3-.1c0,1.8-.2,9.3,0,18.2.2,10.2,1.1,22.3,3.1,29.1-1.8.1-3.7.3-5.6.3-1.6,0-3.4,0-5.1-.2ZM460.6,493.7c-2.8-6.5-5.3-18-6.5-27.7-1-8.7-1.4-17.4-1.5-19.4,4.1-1.9,7.4-5.1,9.2-9.2,2.2,0,10.2.1,18.5,1.1,10.2,1.2,22.1,4.2,28.4,7.2-5.9,23.6-24.6,42.2-48.2,48Z"/>
      </g>
      <g class="st3">
        <g>
          <g>
            <g>
              <path d="M13.8,332.1h-4.2v2.7c.1,0,.3-.1.6-.2s.5,0,.7,0c.5,0,.9,0,1.3.3.4.2.7.4,1,.7.3.3.5.7.7,1s.3.8.3,1.3,0,1-.3,1.4c-.2.4-.4.8-.7,1s-.7.5-1.1.7-.9.3-1.4.3c-.8,0-1.4-.2-1.9-.5-.5-.3-.8-.8-1.1-1.4l1.2-.5c.2.4.4.7.8.9s.7.3,1.1.3.6,0,.8-.2c.3-.1.5-.3.7-.5s.3-.5.5-.7c.1-.3.2-.6.2-1s0-.7-.2-1-.3-.5-.5-.7-.5-.3-.8-.5c-.3-.1-.7-.1-1-.1s-.7,0-1,.2c-.4.1-.7.3-1,.5v-5.3h5.5v1.2h-.1Z"/>
              <path d="M20.6,332.1l-4,9h-1.4l4.1-9h-4.9v-1.1h6.2v1.1h0Z"/>
              <path d="M27.1,332.1h-4.2v2.7c.1,0,.3-.1.6-.2s.5,0,.7,0c.5,0,.9,0,1.3.3.4.2.7.4,1,.7.3.3.5.7.7,1s.3.8.3,1.3,0,1-.3,1.4-.4.8-.7,1-.7.5-1.1.7-.9.3-1.4.3c-.8,0-1.4-.2-1.9-.5-.5-.3-.8-.8-1.1-1.4l1.2-.5c.2.4.4.7.8.9s.7.3,1.1.3.6,0,.8-.2.5-.3.7-.5c.2-.2.3-.5.5-.7.1-.3.2-.6.2-1s0-.7-.2-1c-.1-.3-.3-.5-.5-.7s-.5-.3-.8-.5c-.3-.1-.7-.1-1-.1s-.7,0-1,.2c-.4.1-.7.3-1,.5v-5.3h5.5v1.2h-.1Z"/>
            </g>
            <g>
              <path d="M9.2,160.5h.4c.3,0,.5,0,.8,0s.5-.1.7-.3.4-.3.6-.5.2-.5.2-.9-.1-.9-.5-1.2-.7-.5-1.2-.5-.8,0-1.1.3c-.3.2-.6.5-.7.8l-1.2-.5c.3-.6.7-1,1.2-1.3.5-.3,1.1-.5,1.8-.5s.8,0,1.2.2.7.3,1,.5c.3.2.5.5.7.8s.3.7.3,1.2-.1,1-.5,1.4-.7.7-1.2.9h0c.3,0,.6.1.8.3s.5.3.7.6c.2.2.3.5.4.8,0,.3.1.6.1.9s0,.9-.3,1.3c-.2.4-.5.7-.7.9-.3.3-.7.5-1,.6-.4.1-.8.2-1.3.2-.8,0-1.4-.2-2-.5-.6-.3-1-.8-1.2-1.6l1.2-.4c.2.5.4.9.7,1.2.3.3.8.3,1.3.3s.6,0,.8-.1c.3,0,.5-.3.7-.4.2-.2.3-.4.5-.7s.2-.5.2-.8c0-.4,0-.7-.2-.9-.1-.3-.3-.5-.6-.6s-.5-.3-.8-.3-.6-.1-.9-.1h-.4v-1.2h-.1Z"/>
              <path d="M14.1,165l3.8-3.7c.3-.3.5-.5.7-.7s.3-.4.5-.6.2-.4.3-.6c0-.2,0-.5,0-.7s0-.5-.1-.7-.2-.4-.4-.5c-.2-.1-.4-.3-.6-.3s-.5-.1-.7-.1c-.5,0-.9.1-1.3.5-.3.3-.5.7-.7,1.2h-1.3c0-.5.2-.9.4-1.2s.4-.6.7-.8.6-.4,1-.5c.3-.1.7-.2,1.2-.2s.8,0,1.2.2c.4.1.7.3,1,.5s.5.5.7.8c.2.3.3.7.3,1.2s0,.8-.2,1.1c-.1.3-.3.7-.5.9s-.4.5-.7.8-.5.5-.7.7l-3.1,2.9h5.1v1.1h-6.5v-1.4h0Z"/>
              <path d="M27.2,157.3h-4.2v2.7c.1,0,.3-.1.6-.2s.5,0,.7,0c.5,0,.9,0,1.3.3s.7.4,1,.7c.3.3.5.7.7,1s.3.8.3,1.3,0,1-.3,1.4-.4.8-.7,1-.7.5-1.1.7-.9.3-1.4.3c-.8,0-1.4-.2-1.9-.5-.5-.3-.8-.8-1.1-1.4l1.2-.5c.2.4.4.7.8.9s.7.3,1.1.3.6,0,.8-.2.5-.3.7-.5c.2-.2.3-.5.5-.7.1-.3.2-.6.2-1s0-.7-.2-1c-.1-.3-.3-.5-.5-.7s-.5-.3-.8-.5-.7-.1-1-.1-.7,0-1,.2c-.4.1-.7.3-1,.5v-5.3h5.5v1.2h-.1Z"/>
            </g>
            <path d="M18.1,328.5h-2v-9.8h2v9.8ZM18.1,313.6h-2v-9.8h2v9.8ZM18.1,298.6h-2v-9.8h2v9.8ZM18.1,283.6h-2v-9.8h2v9.8ZM18.1,268.7h-2v-9.8h2v9.8ZM18.1,253.7h-2v-9.8h2v9.8ZM18.1,238.7h-2v-9.8h2v9.8ZM18.1,223.8h-2v-9.8h2v9.8ZM18.1,208.8h-2v-9.8h2v9.8ZM18.1,193.8h-2v-9.8h2v9.8ZM18.1,178.9h-2v-9.8h2v9.8Z"/>
          </g>
          <g>
            <g>
              <path d="M338.6,339.5c.4.3,1.2.6,2.1.6,1.7,0,2.2-1.1,2.2-1.9,0-1.4-1.2-2-2.5-2h-.7v-1h.7c1,0,2.1-.5,2.1-1.6s-.5-1.5-1.7-1.5-1.5.3-2,.7l-.3-1c.5-.4,1.5-.7,2.5-.7,1.9,0,2.8,1.1,2.8,2.3s-.6,1.9-1.8,2.3h0c1.2.3,2.1,1.1,2.1,2.5s-1.2,2.9-3.6,2.9-2.1-.3-2.5-.7l.5-1Z"/>
              <path d="M351.8,336c0,3.3-1.2,5.1-3.4,5.1s-3.2-1.8-3.2-5,1.4-5.1,3.4-5.1c2.1,0,3.2,1.8,3.2,4.9ZM346.5,336.2c0,2.5.8,4,2,4s2-1.6,2-4-.6-4-2-4c-1.2,0-2,1.4-2,4Z"/>
              <path d="M358.9,336c0,3.3-1.2,5.1-3.4,5.1s-3.2-1.8-3.2-5,1.4-5.1,3.4-5.1c2,0,3.2,1.8,3.2,4.9ZM353.6,336.2c0,2.5.8,4,2,4s2-1.6,2-4-.6-4-2-4c-1.2,0-2,1.4-2,4Z"/>
            </g>
            <g>
              <path d="M347.5,157.3h-4.2v2.7c.1,0,.3-.1.6-.2s.5,0,.7,0c.5,0,.9,0,1.3.3.4.2.7.4,1,.7.3.3.5.7.7,1s.3.8.3,1.3,0,1-.3,1.4c-.2.4-.4.8-.7,1s-.7.5-1.1.7-.9.3-1.4.3c-.8,0-1.4-.2-1.9-.5-.5-.3-.8-.8-1.1-1.4l1.2-.5c.2.4.4.7.8.9s.7.3,1.1.3.6,0,.8-.2c.3-.1.5-.3.7-.5s.3-.5.5-.7.2-.6.2-1,0-.7-.2-1-.3-.5-.5-.7-.5-.3-.8-.5c-.3-.1-.7-.1-1-.1s-.7,0-1,.2c-.4.1-.7.3-1,.5v-5.3h5.5v1.2h-.1Z"/>
              <path d="M348.9,161.3c0-.6,0-1.2.1-1.8,0-.7.3-1.2.5-1.7.3-.5.6-.9,1-1.2.5-.3,1-.5,1.7-.5s1.2.2,1.7.5.8.8,1,1.2c.3.5.5,1.1.5,1.7,0,.7.1,1.2.1,1.8s0,1.2-.1,1.8c0,.7-.3,1.2-.5,1.7-.3.5-.6.9-1,1.2-.5.3-1,.5-1.7.5s-1.2-.2-1.7-.5c-.5-.3-.8-.8-1-1.2-.3-.5-.5-1.1-.5-1.7,0-.7-.1-1.2-.1-1.8ZM350.1,161.3v.8c0,.3,0,.6.1.9,0,.3.1.6.3.9s.3.6.4.8c.2.3.4.4.6.5.3.1.5.2.8.2s.7,0,.8-.2c.3-.1.5-.3.6-.5.2-.3.3-.5.4-.8.1-.3.2-.6.3-.9s0-.6.1-.9v-1.7c0-.3,0-.6-.1-.9s-.1-.6-.3-.9-.3-.6-.4-.8c-.2-.3-.4-.4-.6-.5-.3-.1-.5-.2-.8-.2s-.7,0-.8.2c-.3.1-.5.3-.6.5-.2.3-.3.5-.4.8s-.2.6-.3.9c0,.3,0,.6-.1.9,0,.3,0,.6,0,.8Z"/>
            </g>
            <path d="M349,328.5h-1.3v-11h1.3v11ZM350.3,253.7h-3.3v-10.4h3.2v10.4h0ZM350.3,238.7h-3.8v-10.4h3.8v10.4ZM351,224.4h-5.2v-11.1h5.2v11.1ZM352.3,209.4h-7.2v-10.4h7.2v10.4ZM353,194.5h-9.2v-10.4h9.2v10.4ZM354.2,179.5h-11.7v-10.4h11.7v10.4Z"/>
          </g>
          <g>
            <rect x="15.9" y="376.6" width="333.8" height="6.5"/>
            <rect x="63.7" y="386.7" width="238.2" height="6.5"/>
            <rect x="97.8" y="396.5" width="169.8" height="6.5"/>
            <rect x="123.5" y="407" width="118.6" height="6.5"/>
            <rect x="141.4" y="416.8" width="82.6" height="6.5"/>
            <rect x="152.6" y="426.5" width="60.2" height="6.5"/>
            <rect x="162.6" y="436.3" width="40.3" height="6.5"/>
            <rect x="168.5" y="446.7" width="28.4" height="6.5"/>
            <rect x="173.5" y="456.3" width="18.5" height="6.5"/>
            <rect x="175.9" y="466.9" width="13.7" height="6.5"/>
            <rect x="177.4" y="476.6" width="10.7" height="6.5"/>
            <g>
              <rect x="15.9" y="114.6" width="333.8" height="6.5"/>
              <rect x="63.6" y="104.6" width="238.2" height="6.5"/>
              <rect x="97.8" y="94.7" width="169.8" height="6.5"/>
              <rect x="123.4" y="84.2" width="118.6" height="6.5"/>
              <rect x="141.4" y="74.5" width="82.6" height="6.5"/>
              <rect x="152.6" y="64.7" width="60.2" height="6.5"/>
              <rect x="162.5" y="54.9" width="40.3" height="6.5"/>
              <rect x="168.5" y="44.5" width="28.4" height="6.5"/>
              <rect x="173.5" y="34.9" width="18.5" height="6.5"/>
              <rect x="175.9" y="24.4" width="13.7" height="6.5"/>
              <rect x="177.4" y="14.6" width="10.7" height="6.5"/>
            </g>
          </g>
          <g>
            <rect x="-35.6" y="165.2" width="39" height="2"/>
            <rect x="30.2" y="331.1" width="52.7" height="2"/>
            <rect x="-35.6" y="331.1" width="39" height="2"/>
            <rect x="358.1" y="165.1" width="42.9" height="2.1"/>
            <rect x="284.1" y="331.1" width="51.4" height="2"/>
            <rect x="361.5" y="331" width="40.1" height="2.1"/>
            <rect x="52.9" y="354.5" width="44.8" height="5.2" transform="translate(-229.8 156.8) rotate(-44.8)"/>
            <g>
              <line class="st0" x1="26.1" y1="406.5" x2="17.7" y2="415"/>
              <rect x="15.9" y="408.1" width="11.9" height="5.2" transform="translate(-284 135.8) rotate(-45)"/>
            </g>
            <rect x="287.6" y="334.6" width="5.2" height="44.8" transform="translate(-167.6 311.3) rotate(-45.2)"/>
            <g>
              <line class="st0" x1="339.4" y1="406.5" x2="347.8" y2="415"/>
              <rect x="341" y="404.8" width="5.2" height="11.9" transform="translate(-189.8 363.2) rotate(-45)"/>
            </g>
            <rect x="-50.5" y="247.9" width="57.9" height="2.6"/>
            <g>
              <line class="st0" x1="52.9" y1="249.2" x2="26.9" y2="249.2"/>
              <rect x="26.9" y="247.9" width="26" height="2.6"/>
            </g>
            <rect x="359.4" y="247.9" width="57.3" height="2.6"/>
            <rect x="312.6" y="247.9" width="26.7" height="2.6"/>
            <rect x="265" y="350" width="2.6" height="23.4"/>
            <rect x="97.9" y="350" width="2.6" height="23.4"/>
            <g>
              <line class="st0" x1="17.2" y1="344.8" x2="17.2" y2="373.4"/>
              <rect x="15.9" y="344.8" width="2.6" height="28.6"/>
            </g>
            <rect x="15.9" y="388.4" width="2.6" height="17.6"/>
            <g>
              <line class="st0" x1="348.4" y1="344.8" x2="348.4" y2="373.4"/>
              <rect x="347.1" y="344.8" width="2.6" height="28.6"/>
            </g>
            <rect x="347.1" y="388.4" width="2.6" height="17.6"/>
            <polygon points="339.3 414.4 267.6 414.4 267.6 408.6 265 408.6 265 414.4 259.2 414.4 259.2 417 265 417 265 467.8 267.6 467.8 267.6 417 339.3 417 339.3 414.4"/>
            <polygon points="26.8 414.4 98.4 414.4 98.4 408.6 101 408.6 101 414.4 106.8 414.4 106.8 417 101 417 101 467.8 98.4 467.8 98.4 417 26.8 417 26.8 414.4"/>
            <rect x="283" y="164.6" width="52.7" height="2"/>
            <rect x="30.4" y="164.6" width="51.4" height="2"/>
            <rect x="268.1" y="138" width="44.8" height="5.2" transform="translate(-14.7 245.6) rotate(-44.8)"/>
            <g>
              <line class="st0" x1="339.8" y1="91.2" x2="348.2" y2="82.7"/>
              <rect x="338" y="84.4" width="11.9" height="5.2" transform="translate(39.3 268.7) rotate(-45)"/>
            </g>
            <rect x="73" y="118.2" width="5.2" height="44.8" transform="translate(-77.5 95.2) rotate(-45.2)"/>
            <g>
              <line class="st0" x1="26.5" y1="91.2" x2="18.1" y2="82.7"/>
              <rect x="19.6" y="81" width="5.2" height="11.9" transform="translate(-54.9 41.1) rotate(-45)"/>
            </g>
            <rect x="98.2" y="124.2" width="2.6" height="23.4"/>
            <rect x="265.3" y="124.2" width="2.6" height="23.4"/>
            <g>
              <line class="st0" x1="348.7" y1="152.9" x2="348.7" y2="124.2"/>
              <rect x="347.4" y="124.2" width="2.6" height="28.6"/>
            </g>
            <rect x="347.4" y="91.7" width="2.6" height="17.6"/>
            <g>
              <line class="st0" x1="17.5" y1="152.9" x2="17.5" y2="124.2"/>
              <rect x="16.2" y="124.2" width="2.6" height="28.6"/>
            </g>
            <rect x="16.2" y="91.7" width="2.6" height="17.6"/>
            <polygon points="26.6 83.3 98.2 83.3 98.2 89.1 100.8 89.1 100.8 83.3 106.6 83.3 106.6 80.6 100.8 80.6 100.8 29.9 98.2 29.9 98.2 80.6 26.6 80.6 26.6 83.3"/>
            <polygon points="339.1 83.3 267.4 83.3 267.4 89.1 264.8 89.1 264.8 83.3 259 83.3 259 80.6 264.8 80.6 264.8 29.9 267.4 29.9 267.4 80.6 339.1 80.6 339.1 83.3"/>
          </g>
          <polygon points="514.3 93.6 514.3 165.2 422.6 165.2 422.6 167.2 430.4 167.2 430.4 219.9 433 219.9 433 167.2 514.3 167.2 514.3 247.9 436.9 247.9 436.9 250.5 514.3 250.5 514.3 330.5 432.9 330.5 432.9 317.5 430.3 317.5 430.3 330.5 422.6 330.5 422.6 333.1 514.3 333.1 514.3 405.9 516.3 405.9 516.3 93.6 514.3 93.6"/>
        </g>
        <path d="M402.4,342.5c-12,28.4-29.2,53.8-51,75.7-21.9,21.9-47.3,39-75.7,51-29.3,12.4-60.5,18.7-92.7,18.7s-63.3-6.2-92.7-18.7c-28.4-12-53.8-29.2-75.7-51s-39-47.3-51-75.7c-12.4-29.3-18.7-60.5-18.7-92.7s6.2-63.3,18.7-92.7c12-28.4,29.2-53.8,51-75.7S62.1,42.5,90.4,30.5c29.3-12.4,60.5-18.7,92.7-18.7s63.3,6.2,92.7,18.7c28.3,12,53.7,29.2,75.7,51,21.9,21.9,39,47.3,51,75.7,12.4,29.3,18.7,60.5,18.7,92.7s0,2.6,0,3.8h9.7c0-1.3,0-2.6,0-3.9,0-33.4-6.5-65.9-19.5-96.4-12.5-29.5-30.3-56-53.1-78.7-22.8-22.8-49.3-40.6-78.7-53.1-30.6-12.9-63-19.5-96.4-19.5s-65.9,6.6-96.4,19.5c-29.5,12.5-56,30.3-78.7,53.1s-40.6,49.3-53.1,78.7c-12.9,30.6-19.5,63-19.5,96.4s6.5,65.9,19.5,96.4c12.5,29.5,30.3,56,53.1,78.7s49.3,40.6,78.7,53.1c30.6,12.9,63,19.5,96.4,19.5s65.9-6.6,96.4-19.5c29.5-12.5,56-30.3,78.7-53.1,22.8-22.8,40.6-49.3,53.1-78.7,4-9.4,7.3-19,10.1-28.7h-10c-2.5,8.5-5.5,16.8-8.9,25Z"/>
      </g>
    </g>
  </g>
</svg>